<svg xmlns="http://www.w3.org/2000/svg" width="370" height="375" viewBox="0 0 370 375" fill="none"><g clip-path="url(#clip0_167_288)"><path d="M107.328 285.59C106.161 283.408 103.731 281.764 101.302 282.111C96.0651 282.839 92.1216 290.556 90.0709 294.667C88.7774 297.229 87.7048 299.917 86.222 302.353C82.0261 309.184 72.7193 312.948 65.0215 310.481C58.838 308.52 53.7271 303.365 51.9604 297.134C50.1937 290.872 51.8658 283.724 56.3457 279.044C60.8571 274.363 67.6084 272.37 72.2461 267.816C80.3856 259.815 81.2689 244.665 69.4698 239.795C61.141 236.347 51.1086 237.138 43.6316 231.572C27.9836 219.965 41.1393 193.588 32.5266 176.067C30.6968 172.335 27.889 169.14 26.1538 165.345C20.065 151.935 32.9052 134.193 47.5121 135.805C51.5187 136.248 55.3677 137.861 59.4059 137.988C69.3121 138.272 75.9057 127.361 75.0223 118.316C74.5491 113.54 71.4574 108.923 67.6715 106.108C63.1917 102.787 57.3237 103.135 54.9575 97.189C53.2855 93.0143 55.3992 87.701 59.5005 85.8034C63.5702 83.9058 68.965 85.7717 71.0788 89.7567C72.2461 91.9706 72.4038 94.5956 73.161 96.9677C75.4009 104.115 83.3827 108.954 90.7334 107.594C111.587 103.767 104.678 79.1934 94.4246 69.3574C89.7239 64.8664 84.6761 60.407 82.0892 54.4611C78.8081 46.839 80.4171 37.3194 86.0643 31.2154C90.8912 25.9969 101.397 24.1942 107.864 27.3569C112.344 29.5391 114.931 34.4729 115.941 39.4067C118.496 52.0891 112.502 66.0366 117.77 77.865C120.389 83.7476 126.162 88.4917 132.598 88.4284C138.056 88.3651 141.653 85.1392 142.82 79.9208C143.419 77.1376 143.514 74.2596 144.334 71.5396C144.366 71.4131 144.397 71.2866 144.46 71.1601C148.12 59.7112 160.108 59.2368 167.396 67.6495C169.92 70.5592 171.466 74.1963 173.895 77.1692C176.356 80.1422 180.299 82.4509 183.927 81.1858C187.272 80.0473 189.007 76.4418 190.963 73.4689C192.919 70.496 196.484 67.6812 199.702 69.136C201.847 70.0848 202.825 72.5201 204.15 74.4493C207.526 79.3831 214.34 81.6286 219.987 79.6361C223.584 78.3711 226.518 75.6828 230.083 74.3228C241.156 70.1481 241.787 82.8937 242.544 90.579C242.923 94.5956 242.828 100.383 245.542 103.673C250.148 109.271 260.401 108.923 265.638 104.78C269.203 101.965 271.285 97.7583 274.188 94.2794C278.32 89.3139 284.346 85.8666 290.75 85.2341C297.155 84.5699 303.906 86.8471 308.323 91.5595C312.614 96.1454 314.506 102.755 313.686 108.986C312.866 115.216 309.459 120.972 304.695 125.052C302.203 127.171 299.3 128.911 297.313 131.504C294 135.805 293.811 142.289 296.902 146.78C303.307 156.078 317.724 155.762 324.476 165.06C330.722 173.663 326.211 187.8 316.147 191.153C312.235 192.449 307.976 192.291 304.001 193.272C287.943 197.193 283.053 222.558 296.524 232.173C305.168 238.371 317.63 237.802 325.422 245.045C331.732 250.896 333.12 261.427 328.482 268.702C323.876 275.976 313.781 279.202 305.799 275.944C301.824 274.331 298.511 271.358 294.726 269.303C287.911 265.602 279.014 265.191 272.673 269.682C266.332 274.173 263.966 284.009 268.698 290.145C273.241 296.027 281.822 296.723 288.006 300.803C295.735 305.895 298.922 317.059 294.726 325.314C290.53 333.568 279.267 337.49 271.033 333.252C261.821 328.54 258.981 317.059 254.407 307.761C249.832 298.463 238.443 289.765 229.988 295.711C224.309 299.696 222.511 309.026 215.697 310.101C211.974 310.702 208.504 308.425 204.844 307.508C198.093 305.832 192.162 309.121 189.385 315.383C187.019 320.696 186.199 328.129 187.84 333.727C188.66 336.478 190.237 339.008 190.994 341.791C193.55 351.121 181.404 354.094 180.142 344.922C179.7 341.855 181.372 338.913 182.129 335.909C183.17 331.797 182.571 327.37 181.088 323.385C178.911 317.534 174.558 307.887 166.702 311.43C159.351 314.782 158.121 327.812 150.044 327.717C141.59 327.623 141.432 313.612 134.113 309.342C127.897 305.737 118.938 310.607 113.259 306.211C106.35 300.866 110.956 292.011 107.486 285.559L107.328 285.59ZM323.782 92.0339C323.971 92.5399 324.223 93.0143 324.507 93.4887C326.4 96.7463 329.902 98.802 333.53 99.7508C339.998 101.427 347.601 102.344 353.847 99.7508C360.062 97.189 364.984 92.2553 364.732 85.1392C364.416 76.2837 358.012 67.9658 351.355 62.7157C342.048 55.3467 327.063 52.6268 323.529 67.3333C321.983 73.6903 321.668 80.3319 322.52 86.8154C322.772 88.5865 323.088 90.3893 323.782 92.0339ZM220.839 50.0017C225.414 47.5032 225.13 41.3043 224.593 36.8133C224.089 32.5437 223.3 24.2258 217.779 24.0677C212.605 23.9096 208.062 28.9699 205.822 33.113C203.645 37.1296 202.131 43.4233 205.791 47.0921C209.797 51.1403 215.665 52.8482 220.871 50.0017H220.839ZM149.161 354.695C155.155 349.382 155.502 338.882 148.751 333.695C144.05 330.058 137.078 330.406 132.283 333.695C126.856 337.395 126.225 344.954 128.308 350.679C130.989 358.111 140.012 359.787 146.511 356.498C147.489 355.992 148.372 355.391 149.161 354.695ZM15.175 247.164C16.2791 248.018 17.6673 248.397 19.0239 248.555C25.8068 249.378 27.9205 241.25 22.6204 237.865C18.4875 235.177 13.5975 236.917 13.0928 242.072C12.9035 243.969 13.6606 245.994 15.175 247.164ZM40.256 331.702C40.256 331.702 40.3506 331.576 40.3821 331.513C43.8209 326.737 41.0762 319.684 37.9529 315.541C31.2647 306.654 15.9006 296.565 5.111 304.44C1.45139 307.097 0.757322 314.023 0.284095 318.229C-0.346873 323.827 0.0632563 329.583 1.57758 335.023C2.93416 339.925 5.26875 344.005 10.5373 344.511C19.8441 345.428 28.867 340.084 36.3124 335.118C37.7636 334.169 39.1833 333.094 40.256 331.734V331.702ZM319.144 374.841C327.504 372.944 329.019 364.594 324.255 358.427C320.564 353.651 314.191 349.382 308.26 348.401C296.114 346.377 305.799 367.093 309.017 370.667C311.919 373.893 315.642 375.601 319.144 374.841ZM328.356 328.097C329.397 317.818 309.837 315.351 314.096 327.749C314.948 330.184 316.242 332.588 318.387 334.011C322.898 336.952 327.851 332.904 328.356 328.097ZM275.702 342.709C275.702 342.709 275.607 342.645 275.576 342.614C270.938 339.293 265.701 347.073 268.635 350.963C269.771 352.45 271.727 353.272 273.557 352.892C277.721 352.039 278.983 345.239 275.67 342.709H275.702ZM343.783 173.473C344.162 176.383 345.708 179.134 347.948 181.064C353.279 185.681 362.208 185.586 366.94 180.083C372.398 173.726 370.221 163.005 362.46 159.779C357.602 157.755 351.197 159.083 347.695 163.005C345.802 165.124 344.257 167.654 343.815 170.469C343.657 171.481 343.657 172.461 343.815 173.473H343.783ZM44.2311 76.7265C43.7894 77.8018 43.8525 79.1301 44.6727 79.984C45.3668 80.7114 46.4079 80.9012 47.3859 80.9645C48.6794 81.0593 50.0991 80.8696 50.9824 79.9524C52.4967 78.3394 52.5598 74.2596 50.383 73.4373C48.2377 72.615 44.9882 74.8921 44.2311 76.7265ZM23.1567 183.024C21.5477 180.779 18.5506 179.387 13.7237 180.083C10.1903 180.589 5.80507 181.127 4.57468 184.985C3.18655 189.476 7.91881 194.252 11.326 196.497C20.8537 202.823 27.6997 189.413 23.1567 183.024ZM117.518 0.315896C113.858 -0.791045 110.767 1.2647 108.621 4.04787C106.35 6.98917 106.476 11.5434 108.937 14.3266C112.533 18.4065 120.484 17.8688 122.787 12.7769C124.837 8.19099 122.471 1.83399 117.518 0.315896ZM89.2507 6.29338C88.0203 0.157762 78.4611 1.64423 79.723 8.03286C80.1332 10.1519 82.0892 11.8597 84.2345 11.9546C87.2316 12.1127 89.8185 9.26631 89.2507 6.29338Z" fill="#E9FBFF"></path></g><defs><clipPath id="clip0_167_288"><rect width="370" height="375" fill="white"></rect></clipPath></defs></svg>