<svg xmlns="http://www.w3.org/2000/svg" viewBox="0 0 420 190" fill="none">
  <g stroke="#9b8f7b" stroke-width="3" stroke-linecap="round" stroke-linejoin="round" opacity=".62">
    <path d="M41 116c20-43 65-59 125-50 31 5 54 2 82-15 42-25 95-6 113 38"/>
    <path d="M61 116c8 30 36 44 84 42h133c49 0 79-23 88-69"/>
    <path d="M116 155v25M164 157v23M260 154v25M318 137v28"/>
    <path d="M361 87c35 0 51 15 45 39-4 17-19 26-37 28"/>
    <path d="M392 82c10-25-12-39-39-27"/>
    <path d="M86 74c-17-27-6-50 22-61M111 67c13-21 35-30 68-25"/>
    <path d="M118 98c17 14 40 15 68 5"/>
    <path d="M37 151c16-8 32-8 49 0M13 170c45-15 93-14 142 2M243 171c48-17 95-17 141 1"/>
  </g>
</svg>
