<svg xmlns="http://www.w3.org/2000/svg" viewBox="0 0 900 130" fill="none">
  <g stroke="#9b8f7b" stroke-width="2.4" stroke-linecap="round" stroke-linejoin="round" opacity=".48">
    <path d="M5 94c82-22 147-23 196-4 73 28 139 23 200-16 84-54 168-50 253 12 59 43 138 36 240-20"/>
    <path d="M72 95c-5-40 11-71 48-95M118 98c15-40 42-69 80-88M192 100c3-31 22-57 58-78"/>
    <path d="M462 94c-8-42 8-74 47-97M535 99c17-42 45-72 84-91M647 91c2-34 25-61 69-82"/>
    <path d="M336 105c12-23 31-38 57-45M761 100c12-24 32-39 61-45"/>
  </g>
</svg>
