<svg xmlns="http://www.w3.org/2000/svg" viewBox="0 0 420 360" fill="none">
  <g stroke="#8b8375" stroke-width="4" stroke-linecap="round" stroke-linejoin="round" opacity=".62">
    <path d="M218 38c34 22 72 33 112 32 22-1 43 4 63 14"/>
    <path d="M275 77c18-28 31-51 40-69M289 80c26-22 48-41 66-59"/>
    <path d="M126 178c-6 50 28 96 83 112 67 19 139-10 160-65 17-45-7-91-58-111-67-26-158 1-185 64Z"/>
    <path d="M169 194c42-21 91-23 137-5M151 229c46 40 128 48 181 11"/>
    <path d="M62 81c44 42 96 69 156 82"/>
    <path d="M51 66c42 43 93 72 153 87M79 41c34 48 77 83 130 105"/>
    <path d="M298 163c34-4 58 7 72 31 10 17 9 36-4 57"/>
  </g>
</svg>
