<svg xmlns="http://www.w3.org/2000/svg" width="254" height="344" viewBox="0 0 254 344" fill="none"><mask id="mask0_218_4" style="mask-type:alpha" maskUnits="userSpaceOnUse" x="0" y="0" width="254" height="344"><rect width="254" height="344" fill="white"></rect></mask><g mask="url(#mask0_218_4)"><path d="M219.258 300.42C217.81 302.906 215.04 303.716 212.585 302.313C211.51 301.697 210.605 300.824 210.197 299.753L210.123 299.537C209.744 298.31 210.037 296.933 210.497 295.56C211.039 293.949 211.763 292.405 212.648 290.942C213.682 289.255 215.056 287.73 216.784 287.463L216.952 287.441L216.958 287.441L217.23 287.421C217.49 287.417 217.715 287.459 217.898 287.553L217.907 287.557C218.124 287.664 218.316 287.856 218.53 288.119L218.531 288.12C220.239 290.212 220.695 293.15 220.471 295.974L220.472 295.975C220.345 297.536 220.031 299.076 219.28 300.388L219.273 300.396L219.258 300.42Z" stroke="black" stroke-opacity="0.24"></path><path d="M53.8089 141.809C53.2911 142.251 52.5722 142.649 51.7655 143.008C50.9632 143.364 50.1027 143.671 49.3161 143.939C48.5439 144.203 47.8158 144.438 47.3288 144.643L47.3279 144.644C43.3076 146.349 39.2868 148.055 35.2664 149.76L35.2647 149.761C32.2164 151.069 29.1732 152.337 25.9958 152.799L25.996 152.795L25.273 152.871C21.9445 153.219 18.4226 152.453 16.1461 150.229L15.929 150.009C13.2107 147.143 13.0059 142.36 14.9931 138.804C16.9795 135.25 20.8103 132.849 24.8741 131.924C28.941 130.999 33.2142 131.372 37.33 132.241C42.6151 133.362 47.7173 135.279 52.401 137.917C52.9893 138.25 53.568 138.634 53.989 139.08C54.4055 139.52 54.6321 139.981 54.61 140.489C54.5883 140.928 54.3284 141.365 53.8089 141.809Z" stroke="black" stroke-opacity="0.24"></path><path d="M31.5984 170.437C30.5863 171.316 29.5231 171.881 28.4514 171.969C27.467 172.05 26.4028 171.736 25.2824 170.752L25.0574 170.546C23.2997 168.874 22.9398 165.993 23.9166 163.646C24.8299 161.451 26.7659 159.74 28.9956 158.695L29.4452 158.495L29.7334 158.377C31.1775 157.809 32.7023 157.533 34.0924 157.888C35.488 158.245 36.6733 159.329 36.9115 160.616L36.9459 160.877C37.02 161.767 36.6701 162.674 36.2476 163.638L36.2374 163.644L36.1716 163.794C35.2845 165.8 33.6281 168.676 31.5984 170.437Z" stroke="black" stroke-opacity="0.24"></path><path d="M85.8104 73.2319C84.6835 74.784 83.0536 75.7845 81.179 76.4776C79.3 77.1722 77.2101 77.5444 75.1901 77.8604L75.2034 78.0084C70.3964 78.4859 65.4538 75.3452 63.7747 70.8168C61.9661 65.939 63.7872 59.9987 67.8312 56.505C71.8663 53.0155 78.1798 52.0999 82.5053 54.9486L82.5066 54.949L82.8964 55.2179C86.8439 58.0824 88.3474 63.603 87.5467 68.5849C87.2789 70.2581 86.7724 71.9007 85.8091 73.2315L85.8104 73.2319Z" stroke="black" stroke-opacity="0.24"></path><path d="M153.489 43.9789L152.756 44.0676C151.047 44.273 149.269 43.5523 148.191 42.2463L148.19 42.2446C147.614 41.5504 147.223 40.6742 147.04 39.7572L147.04 39.7551C146.465 36.9687 147.995 33.7909 150.601 32.6202L150.856 32.5134C152.211 31.988 153.779 32.0952 155.121 32.6963C156.462 33.297 157.53 34.3693 157.936 35.7225C158.478 37.5496 157.892 39.6447 156.673 41.2533L156.672 41.2564C155.824 42.3897 154.705 43.3008 153.466 44.0692L153.489 43.9789Z" stroke="black" stroke-opacity="0.24"></path><mask id="path-7-inside-1_218_4" fill="white"><path d="M64.966 263.044C77.6475 257.374 87.8971 247.521 98.8065 238.922C100.943 237.235 103.546 235.489 106.168 236.13C109.88 237.032 110.778 242.15 109.163 245.609C107.548 249.069 104.38 251.578 102.148 254.697C99.9224 257.828 98.8383 262.488 101.495 265.181C105.048 268.783 111.399 265.586 114.53 261.527C117.654 257.455 120.173 252.195 125.115 250.767C126.097 250.475 127.178 250.385 128.12 250.781C130.48 251.784 130.562 255.04 130.022 257.555C126.565 273.983 113.414 287.958 112.866 304.683C112.721 308.978 113.71 313.72 117.18 316.252C121.616 319.473 128.389 317.458 132.013 313.243C135.638 309.029 136.817 303.327 137.508 297.874C138.533 289.718 138.75 281.397 141.027 273.474C143.304 265.55 148.054 257.786 155.584 254.249C157.888 253.161 160.476 252.509 162.954 252.958C168.109 253.918 171.249 259.637 170.781 264.831C170.314 270.025 167.096 274.636 163.44 278.432C160.186 281.801 156.317 285.087 155.319 289.616C154.309 294.151 158.55 299.785 162.871 297.955C168.59 295.544 165.853 285.024 171.491 282.417C175.288 280.662 179.581 284.646 179.96 288.753C180.326 292.866 178.242 296.774 176.675 300.627C175.109 304.479 174.086 309.103 176.347 312.543C179.425 317.229 187.171 316.645 191.17 312.602C195.17 308.56 196.155 302.468 196.057 296.855C195.915 288.725 193.932 280.718 194.016 272.587C194.1 264.456 196.825 255.626 203.699 251.09C205.742 249.748 208.164 248.836 210.578 249.062C215.717 249.546 218.94 254.876 219.832 259.901C220.713 264.932 220.118 270.216 221.6 275.11C223.087 279.986 227.861 284.551 232.859 283.221C236.917 282.141 239.216 277.623 239.281 273.471C239.346 269.319 237.721 265.382 236.509 261.433C234.806 255.872 233.862 249.776 235.798 244.237C237.734 238.697 243.222 234.006 249.064 234.585C254.305 235.106 258.318 239.56 260.279 244.388C262.229 249.224 262.604 254.531 263.726 259.617C265.25 266.577 268.218 273.205 272.368 278.989C274.871 282.484 278.109 285.847 282.355 286.748C290.784 288.555 298.397 279.268 298.24 270.693C298.084 262.117 292.827 254.64 287.787 247.734C282.646 240.708 277.497 233.67 272.343 226.652C268.277 221.095 264.233 213.193 268.785 207.892C274.523 201.194 286.451 207.265 293.903 202.526C299.563 198.918 299.794 190.2 295.928 184.851C292.051 179.509 285.432 176.884 278.996 175.19C276.55 174.545 273.969 173.945 272.061 172.325C268.088 168.95 268.566 162.568 270.761 157.785C272.95 152.991 276.479 148.75 277.808 143.674C279.137 138.598 277.076 131.997 271.897 131.051C267.004 130.151 261.851 134.665 257.287 132.764C253.935 131.363 252.806 126.994 253.7 123.464C254.594 119.935 256.968 116.977 258.983 113.903C261.954 109.369 264.29 104.101 263.749 98.7596C263.216 93.4308 259.008 88.2472 253.589 88.1199C245.559 87.9295 230.953 113.159 224.019 99.8308C222.306 96.5274 223.007 92.4946 224.124 88.9018C227.949 76.6183 235.932 63.0356 229.314 52.133C228.401 50.6355 227.128 49.2162 225.4 48.8046C222.792 48.1881 220.246 50.0629 217.592 50.5428C210.262 51.8751 205.66 42.9506 204.932 35.6287C204.203 28.3068 204.024 19.4688 197.655 15.7597C193.15 13.1456 187.024 14.5439 183.087 18.0483C179.149 21.5526 177.128 26.7205 176.192 31.861C174.607 40.5346 175.774 49.4014 176.944 58.1045C177.952 65.5731 178.94 73.0365 179.948 80.505C180.419 84.0715 180.878 87.8399 179.477 91.192C178.075 94.5442 174.129 97.163 170.773 95.812C168.261 94.8002 167.009 92.041 166.263 89.4588C163.688 80.4817 164.396 70.2895 159.168 62.5527C156.85 59.1284 152.827 56.2841 148.722 57.1967C142.614 58.5689 141.059 66.9014 143.197 72.6806C145.342 78.472 149.715 83.3818 150.828 89.4614C151.941 95.541 147.013 103.391 141.045 101.637C138.837 100.984 137.195 99.1787 135.804 97.358C130.476 90.375 127.128 81.9095 126.219 73.1529C125.726 68.3999 125.915 63.4802 124.252 59.0299C122.59 54.5796 118.297 50.5951 113.522 51.2463C108.972 51.8651 105.887 56.286 104.431 60.6093C99.6259 74.7868 106.189 90.4187 116.031 101.517C119.866 105.831 124.507 111.542 121.736 116.673C118.845 122.019 110.602 121.011 105.657 117.581C99.1648 113.069 94.9439 106.095 89.8383 100.086C84.7327 94.0759 77.7607 88.5931 69.783 88.9714C59.8814 89.44 52.1513 99.7018 52.6699 109.494C53.1886 119.285 60.4349 127.768 69.3514 131.934C75.358 134.735 82.1856 135.928 87.6447 139.66C93.116 143.385 96.7576 151.179 92.9333 156.675C89.3875 161.784 81.7878 161.863 75.8316 160.216C69.8633 158.575 63.8427 155.75 57.7393 156.99C51.6429 158.242 46.8078 166.476 51.324 170.623C53.3121 172.44 56.2573 172.716 58.764 173.747C61.2706 174.778 63.6179 177.553 62.355 179.967C61.7908 181.037 60.6802 181.695 59.6074 182.249C53.4915 185.375 46.6069 187.002 39.7582 186.923C36.0606 186.887 31.9508 186.474 29.0415 188.785C25.0225 191.98 26.0846 198.785 29.922 202.093C33.7594 205.401 39.2222 206.054 44.3329 206.181C55.9396 206.477 67.6177 204.821 78.7184 201.295C81.1665 200.513 83.7342 199.63 86.2523 200.12C88.7704 200.61 91.0485 203.069 90.3095 205.52C89.8842 206.916 88.6237 207.903 87.4042 208.736C78.7274 214.637 68.2078 217.795 57.7658 217.636C53.5322 217.569 49.2233 216.98 45.069 217.92C40.9148 218.861 36.8149 221.86 36.2681 226.047C35.5967 231.196 40.7715 235.53 45.9655 235.998C51.1596 236.465 56.2144 234.195 60.9651 231.986C63.9886 236.185 59.4031 241.878 54.6843 244.197C49.9655 246.517 44.0838 248.309 42.317 253.217C40.5278 258.169 44.542 263.692 49.5789 265.205C54.628 266.712 60.1298 265.188 64.9711 263.025L64.966 263.044Z"></path></mask><path d="M64.966 263.044C77.6475 257.374 87.8971 247.521 98.8065 238.922C100.943 237.235 103.546 235.489 106.168 236.13C109.88 237.032 110.778 242.15 109.163 245.609C107.548 249.069 104.38 251.578 102.148 254.697C99.9224 257.828 98.8383 262.488 101.495 265.181C105.048 268.783 111.399 265.586 114.53 261.527C117.654 257.455 120.173 252.195 125.115 250.767C126.097 250.475 127.178 250.385 128.12 250.781C130.48 251.784 130.562 255.04 130.022 257.555C126.565 273.983 113.414 287.958 112.866 304.683C112.721 308.978 113.71 313.72 117.18 316.252C121.616 319.473 128.389 317.458 132.013 313.243C135.638 309.029 136.817 303.327 137.508 297.874C138.533 289.718 138.75 281.397 141.027 273.474C143.304 265.55 148.054 257.786 155.584 254.249C157.888 253.161 160.476 252.509 162.954 252.958C168.109 253.918 171.249 259.637 170.781 264.831C170.314 270.025 167.096 274.636 163.44 278.432C160.186 281.801 156.317 285.087 155.319 289.616C154.309 294.151 158.55 299.785 162.871 297.955C168.59 295.544 165.853 285.024 171.491 282.417C175.288 280.662 179.581 284.646 179.96 288.753C180.326 292.866 178.242 296.774 176.675 300.627C175.109 304.479 174.086 309.103 176.347 312.543C179.425 317.229 187.171 316.645 191.17 312.602C195.17 308.56 196.155 302.468 196.057 296.855C195.915 288.725 193.932 280.718 194.016 272.587C194.1 264.456 196.825 255.626 203.699 251.09C205.742 249.748 208.164 248.836 210.578 249.062C215.717 249.546 218.94 254.876 219.832 259.901C220.713 264.932 220.118 270.216 221.6 275.11C223.087 279.986 227.861 284.551 232.859 283.221C236.917 282.141 239.216 277.623 239.281 273.471C239.346 269.319 237.721 265.382 236.509 261.433C234.806 255.872 233.862 249.776 235.798 244.237C237.734 238.697 243.222 234.006 249.064 234.585C254.305 235.106 258.318 239.56 260.279 244.388C262.229 249.224 262.604 254.531 263.726 259.617C265.25 266.577 268.218 273.205 272.368 278.989C274.871 282.484 278.109 285.847 282.355 286.748C290.784 288.555 298.397 279.268 298.24 270.693C298.084 262.117 292.827 254.64 287.787 247.734C282.646 240.708 277.497 233.67 272.343 226.652C268.277 221.095 264.233 213.193 268.785 207.892C274.523 201.194 286.451 207.265 293.903 202.526C299.563 198.918 299.794 190.2 295.928 184.851C292.051 179.509 285.432 176.884 278.996 175.19C276.55 174.545 273.969 173.945 272.061 172.325C268.088 168.95 268.566 162.568 270.761 157.785C272.95 152.991 276.479 148.75 277.808 143.674C279.137 138.598 277.076 131.997 271.897 131.051C267.004 130.151 261.851 134.665 257.287 132.764C253.935 131.363 252.806 126.994 253.7 123.464C254.594 119.935 256.968 116.977 258.983 113.903C261.954 109.369 264.29 104.101 263.749 98.7596C263.216 93.4308 259.008 88.2472 253.589 88.1199C245.559 87.9295 230.953 113.159 224.019 99.8308C222.306 96.5274 223.007 92.4946 224.124 88.9018C227.949 76.6183 235.932 63.0356 229.314 52.133C228.401 50.6355 227.128 49.2162 225.4 48.8046C222.792 48.1881 220.246 50.0629 217.592 50.5428C210.262 51.8751 205.66 42.9506 204.932 35.6287C204.203 28.3068 204.024 19.4688 197.655 15.7597C193.15 13.1456 187.024 14.5439 183.087 18.0483C179.149 21.5526 177.128 26.7205 176.192 31.861C174.607 40.5346 175.774 49.4014 176.944 58.1045C177.952 65.5731 178.94 73.0365 179.948 80.505C180.419 84.0715 180.878 87.8399 179.477 91.192C178.075 94.5442 174.129 97.163 170.773 95.812C168.261 94.8002 167.009 92.041 166.263 89.4588C163.688 80.4817 164.396 70.2895 159.168 62.5527C156.85 59.1284 152.827 56.2841 148.722 57.1967C142.614 58.5689 141.059 66.9014 143.197 72.6806C145.342 78.472 149.715 83.3818 150.828 89.4614C151.941 95.541 147.013 103.391 141.045 101.637C138.837 100.984 137.195 99.1787 135.804 97.358C130.476 90.375 127.128 81.9095 126.219 73.1529C125.726 68.3999 125.915 63.4802 124.252 59.0299C122.59 54.5796 118.297 50.5951 113.522 51.2463C108.972 51.8651 105.887 56.286 104.431 60.6093C99.6259 74.7868 106.189 90.4187 116.031 101.517C119.866 105.831 124.507 111.542 121.736 116.673C118.845 122.019 110.602 121.011 105.657 117.581C99.1648 113.069 94.9439 106.095 89.8383 100.086C84.7327 94.0759 77.7607 88.5931 69.783 88.9714C59.8814 89.44 52.1513 99.7018 52.6699 109.494C53.1886 119.285 60.4349 127.768 69.3514 131.934C75.358 134.735 82.1856 135.928 87.6447 139.66C93.116 143.385 96.7576 151.179 92.9333 156.675C89.3875 161.784 81.7878 161.863 75.8316 160.216C69.8633 158.575 63.8427 155.75 57.7393 156.99C51.6429 158.242 46.8078 166.476 51.324 170.623C53.3121 172.44 56.2573 172.716 58.764 173.747C61.2706 174.778 63.6179 177.553 62.355 179.967C61.7908 181.037 60.6802 181.695 59.6074 182.249C53.4915 185.375 46.6069 187.002 39.7582 186.923C36.0606 186.887 31.9508 186.474 29.0415 188.785C25.0225 191.98 26.0846 198.785 29.922 202.093C33.7594 205.401 39.2222 206.054 44.3329 206.181C55.9396 206.477 67.6177 204.821 78.7184 201.295C81.1665 200.513 83.7342 199.63 86.2523 200.12C88.7704 200.61 91.0485 203.069 90.3095 205.52C89.8842 206.916 88.6237 207.903 87.4042 208.736C78.7274 214.637 68.2078 217.795 57.7658 217.636C53.5322 217.569 49.2233 216.98 45.069 217.92C40.9148 218.861 36.8149 221.86 36.2681 226.047C35.5967 231.196 40.7715 235.53 45.9655 235.998C51.1596 236.465 56.2144 234.195 60.9651 231.986C63.9886 236.185 59.4031 241.878 54.6843 244.197C49.9655 246.517 44.0838 248.309 42.317 253.217C40.5278 258.169 44.542 263.692 49.5789 265.205C54.628 266.712 60.1298 265.188 64.9711 263.025L64.966 263.044Z" stroke="black" stroke-opacity="0.24" stroke-width="2" mask="url(#path-7-inside-1_218_4)"></path><path d="M84.3419 329.449C81.943 334.266 77.5123 338.374 72.2686 338.948C65.8837 339.643 59.8391 334.761 57.6972 328.672C55.5551 322.583 56.6287 315.721 58.8989 309.492L58.8998 309.491C59.9961 306.464 61.3771 303.508 63.369 301.014C64.9034 299.089 66.787 297.455 68.7647 295.9L69.6178 295.237C72.3139 293.173 75.5519 290.425 79.0164 288.098C82.4826 285.77 86.0794 283.935 89.4353 283.664C92.2131 283.439 93.906 283.903 94.8883 284.695C95.8511 285.471 96.2355 286.649 96.1927 288.124C96.1497 289.605 95.6745 291.317 94.9952 293.036C94.3184 294.748 93.4523 296.435 92.6578 297.859C89.9345 302.749 89.039 308.372 88.2708 313.764C87.4989 319.183 86.7573 324.617 84.3427 329.449L84.3419 329.449Z" stroke="black" stroke-opacity="0.24"></path><path d="M79.7842 274.391C78.2054 276.317 75.8469 277.441 73.4555 278.56C72.9942 278.775 72.4897 279.027 71.9672 279.285C71.442 279.544 70.8943 279.812 70.3345 280.066C69.2103 280.577 68.0633 281.018 66.9939 281.216C65.9232 281.414 64.988 281.356 64.2385 280.939C63.5464 280.554 62.9311 279.817 62.5289 278.48L62.4511 278.205C61.8528 275.945 62.8812 273.404 64.6216 271.607C66.3702 269.821 68.7064 268.683 71.1054 267.654C72.741 266.952 74.3771 266.324 76.0532 266.229C77.6379 266.146 79.2244 266.605 80.2233 267.653L80.4153 267.871C81.1216 268.74 81.3633 269.875 81.2223 271.059C81.081 272.246 80.5579 273.447 79.7842 274.391Z" stroke="black" stroke-opacity="0.24"></path></g></svg>