<svg xmlns="http://www.w3.org/2000/svg" width="115" height="240" viewBox="0 0 115 240" fill="none"><mask id="path-1-inside-1_181_1763" fill="white"><path d="M-52.5357 182.766C-53.2803 181.37 -54.8299 180.317 -56.3795 180.54C-59.7202 181.005 -62.2357 185.944 -63.5438 188.575C-64.3689 190.215 -65.0531 191.935 -65.999 193.494C-68.6756 197.866 -74.6123 200.275 -79.5227 198.696C-83.4671 197.441 -86.7272 194.142 -87.8542 190.154C-88.9812 186.147 -87.9146 181.572 -85.0569 178.577C-82.1791 175.581 -77.8725 174.306 -74.9142 171.391C-69.722 166.27 -69.1585 156.575 -76.6851 153.458C-81.998 151.252 -88.3976 151.758 -93.1671 148.195C-103.149 140.767 -94.7569 123.886 -100.251 112.673C-101.418 110.284 -103.209 108.24 -104.316 105.811C-108.2 97.2292 -100.009 85.8741 -90.6918 86.9064C-88.136 87.1898 -85.6808 88.2221 -83.1048 88.303C-76.7857 88.4852 -72.5797 81.5022 -73.1432 75.7133C-73.4451 72.657 -75.4173 69.7018 -77.8322 67.9004C-80.6899 65.7751 -84.433 65.9978 -85.9424 62.1925C-87.009 59.5208 -85.6606 56.1203 -83.0445 54.9059C-80.4484 53.6914 -77.0071 54.8856 -75.6588 57.436C-74.9142 58.8528 -74.8135 60.5328 -74.3305 62.0508C-72.9017 66.6252 -67.8102 69.7221 -63.1212 68.8517C-49.8189 66.4026 -54.2262 50.6756 -60.7666 44.3807C-63.7652 41.5065 -66.9851 38.6526 -68.6353 34.8474C-70.7283 29.9693 -69.7019 23.8769 -66.0996 19.9705C-63.0206 16.6307 -56.3191 15.477 -52.1936 17.5011C-49.3359 18.8977 -47.6857 22.0552 -47.0417 25.2128C-45.4116 33.3293 -49.2353 42.2555 -45.8745 49.8255C-44.2042 53.5902 -40.5214 56.6263 -36.416 56.5859C-32.9344 56.5454 -30.6402 54.4808 -29.8956 51.1411C-29.5133 49.3599 -29.4529 47.518 -28.9297 45.7773C-28.9095 45.6964 -28.8894 45.6154 -28.8492 45.5344C-26.5147 38.2073 -18.8674 37.9037 -14.2186 43.2877C-12.6087 45.1499 -11.6226 47.4776 -10.073 49.3802C-8.50329 51.2828 -5.98772 52.7604 -3.6734 51.9507C-1.54021 51.2221 -0.433357 48.9146 0.814362 47.012C2.06208 45.1094 4.33615 43.308 6.38885 44.239C7.75731 44.8463 8.38118 46.4048 9.22641 47.6395C11.3797 50.797 15.7266 52.2341 19.3289 50.959C21.6231 50.1493 23.4947 48.4289 25.7688 47.5585C32.8325 44.8867 33.2349 53.0437 33.7179 57.9622C33.9594 60.5328 33.899 64.2368 35.6298 66.3419C38.5679 69.9245 45.1084 69.7018 48.4491 67.0503C50.7231 65.2489 52.0514 62.5569 53.9028 60.3304C56.5391 57.1526 60.3829 54.9464 64.4682 54.5416C68.5535 54.1165 72.8601 55.5738 75.6775 58.5897C78.4145 61.5246 79.6219 65.7549 79.0987 69.7423C78.5755 73.7297 76.402 77.4135 73.3632 80.0246C71.7734 81.3807 69.9219 82.494 68.6541 84.1537C66.541 86.9064 66.4203 91.0558 68.3925 93.9299C72.4777 99.8807 81.6746 99.6783 85.9813 105.629C89.9659 111.135 87.0881 120.182 80.6684 122.328C78.173 123.158 75.4562 123.056 72.9205 123.684C62.6771 126.194 59.5578 142.427 68.151 148.58C73.6651 152.547 81.6143 152.183 86.585 156.818C90.6099 160.562 91.4954 167.302 88.5371 171.958C85.5989 176.613 79.1591 178.678 74.0676 176.593C71.5319 175.561 69.4188 173.658 67.0039 172.342C62.657 169.974 56.9819 169.711 52.9368 172.585C48.8918 175.459 47.3825 181.754 50.4011 185.681C53.2991 189.446 58.7729 189.891 62.7173 192.502C67.6479 195.761 69.6804 202.906 67.0039 208.189C64.3273 213.471 57.1429 215.981 51.8904 213.269C46.014 210.253 44.2028 202.906 41.2847 196.955C38.3667 191.004 31.1017 185.438 25.7084 189.243C22.086 191.794 20.9389 197.765 16.592 198.453C14.2173 198.837 12.0036 197.38 9.66914 196.793C5.3625 195.72 1.57909 197.825 -0.191864 201.833C-1.7012 205.234 -2.22443 209.99 -1.17796 213.573C-0.654724 215.334 0.351501 216.953 0.834488 218.734C2.46458 224.705 -5.28336 226.608 -6.08835 220.738C-6.37009 218.775 -5.30349 216.892 -4.8205 214.969C-4.15639 212.338 -4.53876 209.504 -5.4846 206.954C-6.8732 203.209 -9.65038 197.036 -14.6614 199.303C-19.3504 201.449 -20.1352 209.788 -25.2871 209.727C-30.6805 209.666 -30.7811 200.7 -35.45 197.967C-39.4145 195.66 -45.1299 198.777 -48.7523 195.963C-53.1596 192.543 -50.2214 186.875 -52.4351 182.746L-52.5357 182.766ZM85.5385 58.8933C85.6593 59.2172 85.8203 59.5208 86.0014 59.8244C87.2089 61.9092 89.4427 63.2248 91.757 63.832C95.8825 64.9048 100.733 65.4918 104.717 63.832C108.682 62.1925 111.821 59.035 111.66 54.4808C111.459 48.8134 107.374 43.4901 103.127 40.1302C97.1906 35.4141 87.6315 33.6734 85.3775 43.0853C84.3914 47.1537 84.1902 51.4042 84.7336 55.5536C84.8946 56.6871 85.0958 57.8408 85.5385 58.8933ZM19.8723 31.9934C22.7903 30.3944 22.6092 26.4272 22.2671 23.5531C21.9451 20.8206 21.442 15.4973 17.9202 15.3961C14.6198 15.2949 11.7218 18.5334 10.293 21.1849C8.9044 23.7555 7.93845 27.7834 10.2729 30.1313C12.8287 32.7221 16.5719 33.8151 19.8924 31.9934H19.8723ZM-25.8506 226.992C-22.027 223.592 -21.8056 216.872 -26.1122 213.552C-29.1108 211.225 -33.5583 211.447 -36.6172 213.552C-40.0786 215.921 -40.4811 220.758 -39.1529 224.422C-37.4423 229.178 -31.6867 230.251 -27.5411 228.146C-26.9172 227.822 -26.3537 227.438 -25.8506 226.992ZM-111.319 158.174C-110.615 158.72 -109.73 158.963 -108.864 159.064C-104.537 159.591 -103.189 154.389 -106.57 152.223C-109.206 150.503 -112.326 151.616 -112.648 154.915C-112.768 156.13 -112.285 157.425 -111.319 158.174ZM-95.3204 212.277C-95.3204 212.277 -95.26 212.196 -95.2399 212.156C-93.0463 209.099 -94.7972 204.586 -96.7895 201.934C-101.056 196.247 -110.857 189.79 -117.739 194.83C-120.074 196.53 -120.516 200.963 -120.818 203.655C-121.221 207.237 -120.959 210.921 -119.993 214.403C-119.128 217.54 -117.638 220.151 -114.278 220.475C-108.341 221.062 -102.585 217.641 -97.836 214.463C-96.9102 213.856 -96.0046 213.168 -95.3204 212.298V212.277ZM82.5802 239.886C87.9132 238.671 88.8792 233.328 85.8404 229.381C83.4858 226.324 79.4207 223.592 75.6373 222.964C67.8893 221.669 74.0676 234.927 76.1203 237.214C77.9717 239.278 80.3464 240.371 82.5802 239.886ZM88.4566 209.97C89.1207 203.392 76.6435 201.813 79.3603 209.747C79.9037 211.306 80.7288 212.844 82.0972 213.755C84.9751 215.637 88.1346 213.046 88.4566 209.97ZM54.8688 219.321C54.8688 219.321 54.8084 219.281 54.7883 219.26C51.83 217.135 48.4893 222.114 50.3609 224.604C51.0854 225.555 52.3331 226.081 53.5003 225.839C56.1568 225.292 56.9617 220.94 54.8487 219.321H54.8688ZM98.2975 111.013C98.539 112.875 99.5251 114.636 100.954 115.871C104.355 118.826 110.05 118.765 113.069 115.243C116.55 111.175 115.162 104.313 110.211 102.249C107.112 100.953 103.027 101.804 100.793 104.313C99.5854 105.67 98.5993 107.289 98.3176 109.09C98.217 109.738 98.217 110.365 98.3176 111.013H98.2975ZM-92.7847 49.0968C-93.0665 49.785 -93.0262 50.6351 -92.503 51.1816C-92.0602 51.6471 -91.3961 51.7686 -90.7723 51.8091C-89.9472 51.8698 -89.0416 51.7483 -88.4781 51.1614C-87.5121 50.1291 -87.4718 47.518 -88.8604 46.9918C-90.2289 46.4655 -92.3017 47.9228 -92.7847 49.0968ZM-106.228 117.126C-107.254 115.689 -109.166 114.798 -112.245 115.243C-114.499 115.567 -117.296 115.911 -118.081 118.381C-118.967 121.255 -115.948 124.311 -113.775 125.748C-107.697 129.796 -103.33 121.214 -106.228 117.126ZM-46.0355 0.195294C-48.3699 -0.513131 -50.3421 0.802514 -51.7106 2.5837C-53.1596 4.46608 -53.0791 7.38074 -51.5094 9.16192C-49.2152 11.773 -44.1438 11.4289 -42.6747 8.17013C-41.3666 5.23523 -42.8759 1.16685 -46.0355 0.195294ZM-64.067 4.02078C-64.8519 0.0940902 -70.9496 1.0454 -70.1446 5.13402C-69.883 6.49015 -68.6353 7.58315 -67.2668 7.64387C-65.355 7.74507 -63.7048 5.92341 -64.067 4.02078Z"></path></mask><path d="M-52.5357 182.766C-53.2803 181.37 -54.8299 180.317 -56.3795 180.54C-59.7202 181.005 -62.2357 185.944 -63.5438 188.575C-64.3689 190.215 -65.0531 191.935 -65.999 193.494C-68.6756 197.866 -74.6123 200.275 -79.5227 198.696C-83.4671 197.441 -86.7272 194.142 -87.8542 190.154C-88.9812 186.147 -87.9146 181.572 -85.0569 178.577C-82.1791 175.581 -77.8725 174.306 -74.9142 171.391C-69.722 166.27 -69.1585 156.575 -76.6851 153.458C-81.998 151.252 -88.3976 151.758 -93.1671 148.195C-103.149 140.767 -94.7569 123.886 -100.251 112.673C-101.418 110.284 -103.209 108.24 -104.316 105.811C-108.2 97.2292 -100.009 85.8741 -90.6918 86.9064C-88.136 87.1898 -85.6808 88.2221 -83.1048 88.303C-76.7857 88.4852 -72.5797 81.5022 -73.1432 75.7133C-73.4451 72.657 -75.4173 69.7018 -77.8322 67.9004C-80.6899 65.7751 -84.433 65.9978 -85.9424 62.1925C-87.009 59.5208 -85.6606 56.1203 -83.0445 54.9059C-80.4484 53.6914 -77.0071 54.8856 -75.6588 57.436C-74.9142 58.8528 -74.8135 60.5328 -74.3305 62.0508C-72.9017 66.6252 -67.8102 69.7221 -63.1212 68.8517C-49.8189 66.4026 -54.2262 50.6756 -60.7666 44.3807C-63.7652 41.5065 -66.9851 38.6526 -68.6353 34.8474C-70.7283 29.9693 -69.7019 23.8769 -66.0996 19.9705C-63.0206 16.6307 -56.3191 15.477 -52.1936 17.5011C-49.3359 18.8977 -47.6857 22.0552 -47.0417 25.2128C-45.4116 33.3293 -49.2353 42.2555 -45.8745 49.8255C-44.2042 53.5902 -40.5214 56.6263 -36.416 56.5859C-32.9344 56.5454 -30.6402 54.4808 -29.8956 51.1411C-29.5133 49.3599 -29.4529 47.518 -28.9297 45.7773C-28.9095 45.6964 -28.8894 45.6154 -28.8492 45.5344C-26.5147 38.2073 -18.8674 37.9037 -14.2186 43.2877C-12.6087 45.1499 -11.6226 47.4776 -10.073 49.3802C-8.50329 51.2828 -5.98772 52.7604 -3.6734 51.9507C-1.54021 51.2221 -0.433357 48.9146 0.814362 47.012C2.06208 45.1094 4.33615 43.308 6.38885 44.239C7.75731 44.8463 8.38118 46.4048 9.22641 47.6395C11.3797 50.797 15.7266 52.2341 19.3289 50.959C21.6231 50.1493 23.4947 48.4289 25.7688 47.5585C32.8325 44.8867 33.2349 53.0437 33.7179 57.9622C33.9594 60.5328 33.899 64.2368 35.6298 66.3419C38.5679 69.9245 45.1084 69.7018 48.4491 67.0503C50.7231 65.2489 52.0514 62.5569 53.9028 60.3304C56.5391 57.1526 60.3829 54.9464 64.4682 54.5416C68.5535 54.1165 72.8601 55.5738 75.6775 58.5897C78.4145 61.5246 79.6219 65.7549 79.0987 69.7423C78.5755 73.7297 76.402 77.4135 73.3632 80.0246C71.7734 81.3807 69.9219 82.494 68.6541 84.1537C66.541 86.9064 66.4203 91.0558 68.3925 93.9299C72.4777 99.8807 81.6746 99.6783 85.9813 105.629C89.9659 111.135 87.0881 120.182 80.6684 122.328C78.173 123.158 75.4562 123.056 72.9205 123.684C62.6771 126.194 59.5578 142.427 68.151 148.58C73.6651 152.547 81.6143 152.183 86.585 156.818C90.6099 160.562 91.4954 167.302 88.5371 171.958C85.5989 176.613 79.1591 178.678 74.0676 176.593C71.5319 175.561 69.4188 173.658 67.0039 172.342C62.657 169.974 56.9819 169.711 52.9368 172.585C48.8918 175.459 47.3825 181.754 50.4011 185.681C53.2991 189.446 58.7729 189.891 62.7173 192.502C67.6479 195.761 69.6804 202.906 67.0039 208.189C64.3273 213.471 57.1429 215.981 51.8904 213.269C46.014 210.253 44.2028 202.906 41.2847 196.955C38.3667 191.004 31.1017 185.438 25.7084 189.243C22.086 191.794 20.9389 197.765 16.592 198.453C14.2173 198.837 12.0036 197.38 9.66914 196.793C5.3625 195.72 1.57909 197.825 -0.191864 201.833C-1.7012 205.234 -2.22443 209.99 -1.17796 213.573C-0.654724 215.334 0.351501 216.953 0.834488 218.734C2.46458 224.705 -5.28336 226.608 -6.08835 220.738C-6.37009 218.775 -5.30349 216.892 -4.8205 214.969C-4.15639 212.338 -4.53876 209.504 -5.4846 206.954C-6.8732 203.209 -9.65038 197.036 -14.6614 199.303C-19.3504 201.449 -20.1352 209.788 -25.2871 209.727C-30.6805 209.666 -30.7811 200.7 -35.45 197.967C-39.4145 195.66 -45.1299 198.777 -48.7523 195.963C-53.1596 192.543 -50.2214 186.875 -52.4351 182.746L-52.5357 182.766ZM85.5385 58.8933C85.6593 59.2172 85.8203 59.5208 86.0014 59.8244C87.2089 61.9092 89.4427 63.2248 91.757 63.832C95.8825 64.9048 100.733 65.4918 104.717 63.832C108.682 62.1925 111.821 59.035 111.66 54.4808C111.459 48.8134 107.374 43.4901 103.127 40.1302C97.1906 35.4141 87.6315 33.6734 85.3775 43.0853C84.3914 47.1537 84.1902 51.4042 84.7336 55.5536C84.8946 56.6871 85.0958 57.8408 85.5385 58.8933ZM19.8723 31.9934C22.7903 30.3944 22.6092 26.4272 22.2671 23.5531C21.9451 20.8206 21.442 15.4973 17.9202 15.3961C14.6198 15.2949 11.7218 18.5334 10.293 21.1849C8.9044 23.7555 7.93845 27.7834 10.2729 30.1313C12.8287 32.7221 16.5719 33.8151 19.8924 31.9934H19.8723ZM-25.8506 226.992C-22.027 223.592 -21.8056 216.872 -26.1122 213.552C-29.1108 211.225 -33.5583 211.447 -36.6172 213.552C-40.0786 215.921 -40.4811 220.758 -39.1529 224.422C-37.4423 229.178 -31.6867 230.251 -27.5411 228.146C-26.9172 227.822 -26.3537 227.438 -25.8506 226.992ZM-111.319 158.174C-110.615 158.72 -109.73 158.963 -108.864 159.064C-104.537 159.591 -103.189 154.389 -106.57 152.223C-109.206 150.503 -112.326 151.616 -112.648 154.915C-112.768 156.13 -112.285 157.425 -111.319 158.174ZM-95.3204 212.277C-95.3204 212.277 -95.26 212.196 -95.2399 212.156C-93.0463 209.099 -94.7972 204.586 -96.7895 201.934C-101.056 196.247 -110.857 189.79 -117.739 194.83C-120.074 196.53 -120.516 200.963 -120.818 203.655C-121.221 207.237 -120.959 210.921 -119.993 214.403C-119.128 217.54 -117.638 220.151 -114.278 220.475C-108.341 221.062 -102.585 217.641 -97.836 214.463C-96.9102 213.856 -96.0046 213.168 -95.3204 212.298V212.277ZM82.5802 239.886C87.9132 238.671 88.8792 233.328 85.8404 229.381C83.4858 226.324 79.4207 223.592 75.6373 222.964C67.8893 221.669 74.0676 234.927 76.1203 237.214C77.9717 239.278 80.3464 240.371 82.5802 239.886ZM88.4566 209.97C89.1207 203.392 76.6435 201.813 79.3603 209.747C79.9037 211.306 80.7288 212.844 82.0972 213.755C84.9751 215.637 88.1346 213.046 88.4566 209.97ZM54.8688 219.321C54.8688 219.321 54.8084 219.281 54.7883 219.26C51.83 217.135 48.4893 222.114 50.3609 224.604C51.0854 225.555 52.3331 226.081 53.5003 225.839C56.1568 225.292 56.9617 220.94 54.8487 219.321H54.8688ZM98.2975 111.013C98.539 112.875 99.5251 114.636 100.954 115.871C104.355 118.826 110.05 118.765 113.069 115.243C116.55 111.175 115.162 104.313 110.211 102.249C107.112 100.953 103.027 101.804 100.793 104.313C99.5854 105.67 98.5993 107.289 98.3176 109.09C98.217 109.738 98.217 110.365 98.3176 111.013H98.2975ZM-92.7847 49.0968C-93.0665 49.785 -93.0262 50.6351 -92.503 51.1816C-92.0602 51.6471 -91.3961 51.7686 -90.7723 51.8091C-89.9472 51.8698 -89.0416 51.7483 -88.4781 51.1614C-87.5121 50.1291 -87.4718 47.518 -88.8604 46.9918C-90.2289 46.4655 -92.3017 47.9228 -92.7847 49.0968ZM-106.228 117.126C-107.254 115.689 -109.166 114.798 -112.245 115.243C-114.499 115.567 -117.296 115.911 -118.081 118.381C-118.967 121.255 -115.948 124.311 -113.775 125.748C-107.697 129.796 -103.33 121.214 -106.228 117.126ZM-46.0355 0.195294C-48.3699 -0.513131 -50.3421 0.802514 -51.7106 2.5837C-53.1596 4.46608 -53.0791 7.38074 -51.5094 9.16192C-49.2152 11.773 -44.1438 11.4289 -42.6747 8.17013C-41.3666 5.23523 -42.8759 1.16685 -46.0355 0.195294ZM-64.067 4.02078C-64.8519 0.0940902 -70.9496 1.0454 -70.1446 5.13402C-69.883 6.49015 -68.6353 7.58315 -67.2668 7.64387C-65.355 7.74507 -63.7048 5.92341 -64.067 4.02078Z" stroke="black" stroke-opacity="0.4" stroke-width="2" mask="url(#path-1-inside-1_181_1763)"></path></svg>